<svg width="144" height="48" viewBox="0 0 144 48" fill="none" xmlns="http://www.w3.org/2000/svg">
<path d="M35.019 0.143585C29.2428 0.224939 24.4983 0.291663 24.4738 0.299798C24.4494 0.307934 26.7314 2.60695 29.5406 5.4161L34.6406 10.5154L43.3821 10.5407L52.1155 10.5651L52.6508 10.7545C53.3129 10.9752 53.9201 11.335 54.4316 11.8097C54.9432 12.2844 55.3474 12.8631 55.617 13.5068C56.7706 16.0524 55.7903 19.2658 53.5164 20.4105C52.5361 20.8986 52.2806 20.9377 49.5202 20.9458C47.3619 20.954 46.9414 20.9784 46.5631 21.1028C45.7886 21.3583 45.4998 21.8114 45.7308 22.4208C45.8292 22.6844 48.2601 25.164 51.5395 28.3595C54.4398 31.1769 54.3324 31.111 55.4364 30.749C55.7821 30.6334 56.7379 30.2056 57.5516 29.8102C62.6101 27.3305 65.5761 23.8453 66.4909 19.2895C66.7188 17.8625 66.777 16.4135 66.6641 14.9728C66.2222 11.3011 64.7804 7.8213 62.4955 4.9134C60.5927 2.66396 57.239 1.03283 53.1202 0.357596C50.5161 -0.0792745 51.0351 -0.0711896 35.019 0.143585Z" fill="#09408E"/>
<path d="M9.48097 0.448643C2.94742 0.529997 0.575135 0.58862 0.426255 0.662652C0.301033 0.731611 0.202311 0.840178 0.145608 0.971404C0.0889051 1.10263 0.0774829 1.24906 0.113084 1.38751C0.145626 1.50222 2.1152 3.53764 4.63636 6.05068L9.11084 10.5251H29.7894L24.6812 5.41697L19.5689 0.308716L18.9506 0.316859C18.6154 0.324995 14.3484 0.382746 9.48097 0.448643Z" fill="#09408E"/>
<path d="M36.947 24.2666C35.3158 25.8489 33.8165 27.3312 33.6017 27.5622C33.1485 28.0398 33.0583 28.3205 33.2145 28.6581C33.2803 28.7818 37.5392 33.074 42.6808 38.1822C50.9789 46.4291 52.0813 47.5004 52.4847 47.6729C52.9127 47.8624 53.0697 47.8788 55.4509 47.9447C58.9108 48.0521 64.3818 47.9943 64.7599 47.8454C64.9157 47.8091 65.0607 47.737 65.1837 47.6351C65.3068 47.5331 65.4049 47.404 65.4693 47.2579C65.5342 47.1117 65.5641 46.9526 65.5567 46.793C65.5494 46.6333 65.5048 46.4775 65.4275 46.3379C65.1962 45.8685 41.1228 21.7292 40.6868 21.5315C40.036 21.2435 40.1678 21.1442 36.947 24.2666Z" fill="#09408E"/>
<path d="M23.1308 23.4345C23.0495 23.4597 21.4997 25.0331 19.6872 26.9327C16.878 29.8908 16.3915 30.4309 16.4159 30.6156C16.4321 30.7718 18.5254 32.9057 24.7783 39.1098C31.4493 45.7337 33.1984 47.4225 33.5197 47.5705C33.8988 47.752 34.0713 47.7602 37.3344 47.8505C39.2129 47.9001 41.9318 47.9244 43.3815 47.9082C45.6879 47.8838 46.0507 47.8675 46.2818 47.7455C46.4695 47.66 46.6272 47.52 46.7344 47.3437C46.8416 47.1675 46.8934 46.963 46.883 46.757V46.3502L35.6618 35.0966C29.4789 28.9097 24.2844 23.7355 24.1095 23.6118C23.9741 23.503 23.8136 23.4297 23.6427 23.3987C23.4718 23.3677 23.2958 23.38 23.1308 23.4345Z" fill="#09408E"/>
<path d="M13.3844 33.1636C13.2364 33.2376 10.2288 36.1541 6.69475 39.6311C-0.308223 46.5186 -0.0690372 46.2468 0.0294013 47.0791C0.0296271 47.1885 0.0532543 47.2966 0.0987192 47.3961C0.144184 47.4956 0.210412 47.5842 0.292967 47.6559L0.506929 47.8455H13.0639L13.369 47.6559C13.5317 47.5575 15.2637 45.893 17.2081 43.9649C20.289 40.9165 20.7673 40.4057 20.8495 40.1095C21.039 39.3846 21.0553 39.401 17.7353 36.1794C16.0707 34.5645 14.5966 33.1887 14.4477 33.1228C14.2788 33.0495 14.0955 33.0151 13.9115 33.0221C13.7274 33.0291 13.5473 33.0775 13.3844 33.1636Z" fill="#09408E"/>
<path d="M88.1619 25.3678L84.4905 20.1048C84.3364 20.1219 84.1056 20.1305 83.7975 20.1305H79.7412V25.3678H76.4033V7.39659H83.7975C85.355 7.39659 86.7071 7.6533 87.8538 8.16677C89.0174 8.68023 89.9079 9.41621 90.5235 10.3746C91.1398 11.3331 91.4479 12.4713 91.4479 13.7892C91.4479 15.1413 91.1144 16.3052 90.4468 17.2807C89.7961 18.2563 88.8549 18.9838 87.623 19.463L91.756 25.3678H88.1619ZM88.0846 13.7892C88.0846 12.6424 87.7082 11.761 86.9554 11.1449C86.202 10.5287 85.0982 10.2206 83.6434 10.2206H79.7412V17.3834H83.6434C85.0982 17.3834 86.202 17.0754 86.9554 16.4592C87.7082 15.8259 88.0846 14.9359 88.0846 13.7892ZM106.838 21.2087H97.8523L96.0809 25.3678H92.6403L100.727 7.39659H104.013L112.127 25.3678H108.635L106.838 21.2087ZM105.734 18.5901L102.345 10.7341L98.982 18.5901H105.734ZM119.983 25.6245C118.597 25.6245 117.253 25.4277 115.953 25.0341C114.669 24.6404 113.65 24.1184 112.897 23.468L114.053 20.875C114.788 21.4569 115.687 21.9362 116.748 22.3127C117.827 22.6721 118.905 22.8519 119.983 22.8519C121.318 22.8519 122.311 22.6379 122.961 22.21C123.629 21.7821 123.962 21.2173 123.962 20.5156C123.962 20.0021 123.774 19.5828 123.398 19.2576C123.038 18.9153 122.576 18.65 122.011 18.4617C121.447 18.2735 120.676 18.0595 119.701 17.8199C118.331 17.4947 117.219 17.1695 116.363 16.8443C115.524 16.5191 114.797 16.0142 114.181 15.3296C113.582 14.6279 113.282 13.6865 113.282 12.5055C113.282 11.5129 113.547 10.6143 114.078 9.80987C114.626 8.98829 115.439 8.33792 116.517 7.85871C117.613 7.37944 118.947 7.13983 120.522 7.13983C121.618 7.13983 122.696 7.27673 123.757 7.55059C124.818 7.82445 125.734 8.21812 126.504 8.73159L125.452 11.3245C124.664 10.8624 123.843 10.5116 122.987 10.272C122.131 10.0323 121.301 9.91252 120.496 9.91252C119.179 9.91252 118.195 10.135 117.544 10.58C116.911 11.0251 116.594 11.6156 116.594 12.3515C116.594 12.8649 116.774 13.2843 117.133 13.6095C117.51 13.9347 117.981 14.1914 118.546 14.3797C119.11 14.568 119.88 14.7819 120.856 15.0215C122.191 15.3296 123.286 15.6548 124.142 15.9971C124.998 16.3223 125.725 16.8272 126.325 17.5118C126.94 18.1964 127.248 19.1207 127.248 20.2845C127.248 21.2773 126.975 22.1758 126.427 22.9802C125.896 23.7847 125.084 24.4265 123.988 24.9057C122.892 25.3849 121.558 25.6245 119.983 25.6245ZM133.953 10.2206H127.997V7.39659H143.247V10.2206H137.29V25.3678H133.953V10.2206Z" fill="#09408E"/>
<path d="M87.5672 43.1897L87.5503 34.7725L83.375 41.7868H82.616L78.4401 34.822V43.1897H76.8555V31.6367H78.2093L83.0285 39.7568L87.7817 31.6367H89.1349L89.1513 43.1897H87.5672ZM97.8338 43.3217C96.6679 43.3217 95.6171 43.0686 94.6815 42.5625C93.7465 42.0454 93.0095 41.3357 92.47 40.4335C91.9418 39.5312 91.6777 38.5244 91.6777 37.4132C91.6777 36.3019 91.9418 35.2951 92.47 34.3929C93.0095 33.4907 93.7465 32.7865 94.6815 32.2803C95.6171 31.7632 96.6679 31.5046 97.8338 31.5046C98.9895 31.5046 100.035 31.7632 100.97 32.2803C101.905 32.7865 102.637 33.4907 103.165 34.3929C103.693 35.2841 103.957 36.2909 103.957 37.4132C103.957 38.5355 103.693 39.5477 103.165 40.45C102.637 41.3412 101.905 42.0454 100.97 42.5625C100.035 43.0686 98.9895 43.3217 97.8338 43.3217ZM97.8338 41.8528C98.6814 41.8528 99.4404 41.6603 100.111 41.2752C100.794 40.8901 101.327 40.362 101.712 39.6908C102.108 39.0086 102.306 38.2494 102.306 37.4132C102.306 36.577 102.108 35.8233 101.712 35.1521C101.327 34.4699 100.794 33.9363 100.111 33.5512C99.4404 33.1661 98.6814 32.9735 97.8338 32.9735C96.9867 32.9735 96.2164 33.1661 95.5235 33.5512C94.8412 33.9363 94.3023 34.4699 93.9062 35.1521C93.5207 35.8233 93.3283 36.577 93.3283 37.4132C93.3283 38.2494 93.5207 39.0086 93.9062 39.6908C94.3023 40.362 94.8412 40.8901 95.5235 41.2752C96.2164 41.6603 96.9867 41.8528 97.8338 41.8528ZM114.253 37.1987C114.925 37.3857 115.453 37.7268 115.838 38.2219C116.222 38.706 116.415 39.3222 116.415 40.0704C116.415 41.0716 116.036 41.8418 115.277 42.381C114.528 42.9201 113.434 43.1897 111.992 43.1897H106.48V31.6367H111.662C112.982 31.6367 114 31.9008 114.715 32.4289C115.441 32.9571 115.804 33.6888 115.804 34.624C115.804 35.2291 115.662 35.7518 115.375 36.1919C115.101 36.632 114.726 36.9676 114.253 37.1987ZM108.13 32.9735V36.6705H111.513C112.361 36.6705 113.01 36.5165 113.461 36.2084C113.923 35.8893 114.154 35.4272 114.154 34.822C114.154 34.2168 113.923 33.7602 113.461 33.4522C113.01 33.1331 112.361 32.9735 111.513 32.9735H108.13ZM111.926 41.8528C112.861 41.8528 113.566 41.6988 114.039 41.3907C114.511 41.0826 114.748 40.5985 114.748 39.9383C114.748 38.651 113.808 38.0073 111.926 38.0073H108.13V41.8528H111.926ZM118.971 31.6367H120.621V43.1897H118.971V31.6367ZM124.08 31.6367H125.731V41.7538H131.985V43.1897H124.08V31.6367ZM142.263 41.7538V43.1897H133.879V31.6367H142.032V33.0726H135.53V36.621H141.322V38.0238H135.53V41.7538H142.263Z" fill="#09408E"/>
</svg>
